<svg xmlns="http://www.w3.org/2000/svg" xmlns:xlink="http://www.w3.org/1999/xlink" preserveAspectRatio="xMidYMid" width="345" height="64" viewBox="0 0 345 64">
  <defs>
    <style>
      .cls-1 {
        fill: #141313;
        fill-rule: evenodd;
      }
    </style>
  </defs>
  <path d="M344.999,50.123 L344.999,51.979 L325.999,51.979 L325.999,50.123 L328.000,50.123 L328.000,19.000 L326.998,19.000 L320.999,46.999 L320.999,50.123 L322.854,50.123 L322.854,51.979 L303.998,51.979 L303.998,49.975 L307.999,49.975 L307.999,3.999 L303.998,3.999 L303.998,1.999 L322.998,1.999 L322.998,3.999 L320.999,3.999 L320.999,33.999 L321.999,33.999 L328.000,6.999 L328.000,3.901 L325.999,3.901 L325.999,1.999 L344.999,1.999 L344.999,3.999 L340.999,3.999 L340.999,50.123 L344.999,50.123 ZM291.999,3.999 L291.999,49.999 L295.999,49.999 L295.999,51.979 L273.999,51.979 L273.999,49.999 L277.999,49.999 L277.999,3.999 C270.932,3.999 268.999,12.937 268.999,18.927 L267.999,18.927 L267.999,1.999 L301.999,1.999 L301.999,18.927 L300.999,18.927 C300.999,12.058 298.900,3.999 291.999,3.999 ZM250.831,53.981 C239.203,53.981 233.441,38.878 233.441,27.023 C233.441,12.746 240.539,0.114 250.831,0.114 C252.855,0.114 256.457,0.847 258.833,3.901 L263.056,0.002 L263.999,0.002 L263.999,18.925 L263.056,18.925 C261.900,10.830 257.582,1.899 253.056,1.899 C248.071,1.899 247.999,11.392 247.999,14.870 L247.999,37.885 C247.999,40.084 248.242,50.975 253.966,50.975 C259.775,50.975 263.077,40.602 263.999,33.999 L264.998,33.999 C264.584,42.444 260.609,53.981 250.831,53.981 ZM212.040,53.981 C200.464,53.981 194.646,39.402 194.646,27.041 C194.646,14.678 200.464,0.104 212.040,0.104 C223.622,0.104 229.430,14.678 229.430,27.041 C229.430,39.402 223.622,53.981 212.040,53.981 ZM214.999,5.999 C214.999,2.942 213.703,1.899 212.040,1.899 C210.378,1.899 208.999,2.942 208.999,5.999 L208.999,47.999 C208.999,51.054 210.378,51.977 212.040,51.977 C213.703,51.977 214.999,51.054 214.999,47.999 L214.999,5.999 ZM171.998,50.123 L174.999,50.123 L174.999,11.999 L173.999,11.999 L164.998,51.999 L163.377,51.979 L154.999,11.999 L153.999,11.999 L153.999,44.967 C153.999,48.974 156.028,50.123 157.598,50.123 L158.999,50.123 L158.999,51.979 L146.998,51.979 L146.998,50.123 C148.799,50.123 152.052,49.803 152.052,45.023 L151.999,3.999 L147.998,3.999 L147.998,1.999 L165.999,1.999 L169.999,19.000 L173.999,1.999 L192.999,1.993 L192.999,3.999 L188.999,3.999 L188.999,50.123 L192.999,50.123 L192.999,51.979 L171.998,51.979 L171.998,50.123 ZM129.040,52.979 C117.464,52.979 111.647,39.402 111.647,27.041 C111.647,14.678 117.464,1.104 129.040,1.104 C140.622,1.104 146.430,14.678 146.430,27.041 C146.430,39.402 140.622,52.979 129.040,52.979 ZM131.999,6.434 C131.999,3.378 130.703,2.900 129.040,2.900 C127.378,2.900 125.999,3.378 125.999,6.434 L125.999,47.656 C125.999,50.712 127.378,50.977 129.040,50.977 C130.703,50.977 131.999,50.712 131.999,47.656 L131.999,6.434 ZM98.999,51.999 L87.089,51.979 C80.999,51.979 76.999,56.987 76.999,63.997 L75.999,63.997 L75.999,49.975 L79.999,49.999 C83.740,47.795 84.999,35.645 84.999,23.933 C84.999,15.593 84.999,8.909 84.999,8.909 C84.999,4.499 83.999,3.901 81.998,3.901 L78.998,3.901 L78.998,2.052 L109.999,2.052 L109.999,3.901 L105.888,3.901 L106.000,49.975 L110.999,49.975 L110.999,63.997 L109.999,63.997 C109.999,55.984 105.326,51.999 98.999,51.999 ZM91.999,3.901 L89.508,3.901 C88.503,3.901 86.999,4.952 86.999,8.860 L86.999,23.938 C86.999,31.855 85.826,44.626 83.999,48.999 L83.999,49.999 L91.999,49.975 L91.999,3.901 ZM40.999,49.999 L44.999,49.999 L44.999,3.999 L40.999,3.999 L40.999,1.993 L72.999,1.993 L72.999,19.782 L71.791,19.782 C70.307,3.903 62.345,3.844 59.835,3.844 L58.999,3.844 L58.999,24.999 L60.999,24.999 C64.931,24.999 66.931,19.168 66.790,14.079 L67.999,14.079 L67.999,37.260 L66.790,37.260 C66.931,32.186 64.989,27.000 60.999,27.000 L58.999,27.000 L58.999,49.999 C68.964,50.017 71.987,41.926 72.999,32.999 L73.999,32.999 L73.999,51.979 L40.999,51.979 L40.999,49.999 ZM37.999,37.188 C37.999,47.004 31.798,51.979 22.198,51.979 L-0.001,51.979 L-0.001,49.975 L3.999,49.975 L3.999,3.992 L-0.001,3.992 L-0.001,1.993 L21.999,1.999 C30.128,1.999 35.999,6.256 35.999,12.999 C35.999,19.699 32.859,24.614 26.186,25.492 L26.186,26.208 C31.944,26.105 37.999,30.386 37.999,37.188 ZM23.998,9.896 C23.998,3.615 21.375,4.008 20.075,4.008 L17.999,4.008 L17.999,24.999 L19.999,24.999 C21.299,24.999 23.998,25.031 23.998,18.749 L23.998,9.896 ZM24.999,32.910 C24.999,26.604 21.299,27.000 19.999,27.000 L17.999,27.000 L17.999,50.112 L20.075,50.112 C21.375,50.112 24.999,50.261 24.999,43.949 L24.999,32.910 Z" class="cls-1"/>
</svg>
